#!OML:ASF F:\VICON\USERDATA\INSTALL\rory3\rory3.ASF
:FULLY-SPECIFIED
:DEGREES
28
root 0.11188523235502326 17.96442842232164 2.2617006628641168 -2.328508577664466 1.5825287247700404 -1.1649303295073323
lfemur 8.383543732801824 -5.976220984361005 -21.18742065139647
ltibia 36.75703155529797
lfoot -1.2331218239193475 -16.357085387269986
ltoes -12.097914943435706
rfemur -23.126249902057065 4.047168681875843 23.499063711737467
rtibia 32.048073798739146
rfoot -4.705362189382566 -1.9431063883384043
rtoes 6.200772906761994
lowerback 9.599458898515984 -1.4601136586612824 -1.6372146612638236
upperback 0.29702888061459837 -2.1297596254396494 2.0890419224219796
thorax -5.019453299420663 -0.9700614588799622 3.225659986102701
lowerneck -16.534779780143815 -2.4482672720009617 -1.883962386840046
upperneck 22.218400836155713 -3.321114152694163 -0.5538566225794157
head 9.736635500331836 -1.7789913077233148 -0.31925060110459397
lclavicle -4.519363263624988e-16 -7.861673790931281e-16
lhumerus -28.370128077881205 1.2425896340654994 82.55532053260445
lradius 29.641023655104185
lwrist 8.711139304011384
lhand -27.356732535930046 23.354152504692614
lfingers 7.12502
lthumb -0.894648802200887 53.28872052219939
rclavicle -4.528949101320438e-16 -7.761906637988931e-16
rhumerus -35.60339623077563 -28.749603308298603 -71.75733055748829
rradius 20.63752638303834
rwrist 10.416598441899497
rhand -17.996331006256277 22.396896393203455
rfingers 7.12502
rthumb 8.466299853051982 -6.98704299739873
29
root 0.02146074344720217 18.032824879873306 3.1173039430402625 -2.8873640169403507 1.492779334662373 -2.4408751717218173
lfemur 2.2897813983490938 -5.419863115094813 -18.31536095268033
ltibia 46.38582271714065
lfoot 6.970339846714945 -17.41633543350751
ltoes -14.607542433358544
rfemur -19.971143960679726 4.409484178910646 26.079632979088686
rtibia 32.51559807481571
rfoot -5.695419119872959 -2.821294790803573
rtoes 6.420474763208901
lowerback 9.884346927053688 -1.4563591539211553 -0.5928396079684035
upperback 0.23890852541191682 -1.8022013029590995 2.271642909014214
thorax -5.08745032758956 -0.8585354548756324 2.9369973008729584
lowerneck -16.43057685262645 -2.502035937671255 -1.8360250634431248
upperneck 22.31665168058486 -3.433110524065773 -0.36071847524463574
head 9.762889479347372 -1.834447884230418 -0.27866456458599576
lclavicle -4.519240309120763e-16 -7.86202222110083e-16
lhumerus -29.29049074575667 1.8177476228889153 82.46275976167117
lradius 28.961969471956266
lwrist 8.039812696238211
lhand -27.2845251205154 23.74261713266334
lfingers 7.12502
lthumb -0.8975002384769505 53.38097396820378
rclavicle -4.528880976102567e-16 -7.761860461883222e-16
rhumerus -35.00626710556655 -27.6956171006448 -72.70985729880921
rradius 20.418751654902586
rwrist 9.889247195425938
rhand -17.98059447055853 22.066307278491117
rfingers 7.12502
rthumb 8.383886658017811 -7.4890512207535345
30
root -0.05207126605205625 18.10693499606343 3.86851063053817 -3.361403626100262 1.1466736399631423 -3.5658146412369707
lfemur -3.8665795506551133 -4.233299395314951 -16.183524401822154
ltibia 55.42793203175741
lfoot 10.36487233218062 -16.581999229738063
ltoes -14.707288096345934
rfemur -16.635216093422137 4.87321482459 28.102442328429326
rtibia 32.3599830121901
rfoot -6.788088575158032 -4.020368157473604
rtoes 6.455683701962018
lowerback 10.23858120494631 -1.3277208522445727 0.39721288138505795
upperback 0.20885314621933554 -1.3995343658968695 2.3745534768137393
thorax -5.203499578863286 -0.6941802467591155 2.527514559365956
lowerneck -16.349525665861538 -2.6009275129529037 -1.74770026760588
upperneck 22.245766870395823 -3.6027643048537534 -0.14265182881122707
head 9.743992124744173 -1.9110335827135057 -0.20318614928420425
lclavicle -4.519212962524837e-16 -7.862650911922802e-16
lhumerus -29.96015062796416 2.5595116472526622 82.1939150468613
lradius 28.319320301471915
lwrist 6.7302244859357065
lhand -27.342452332990142 23.98836443753302
lfingers 7.12502
lthumb -1.0847549668837533 53.35643007562251
rclavicle -4.5290122341371185e-16 -7.761958647689695e-16
rhumerus -33.78818160704816 -26.00798282509198 -74.2395732798873
rradius 20.547763816461647
rwrist 9.792925275101403
rhand -17.66574841560415 21.84860950437855
rfingers 7.12502
rthumb 8.586210826373833 -7.864975765046328
31
root -0.09974015570522837 18.16147086485817 4.846200131263419 -3.7325749671477584 0.6257724181336273 -4.058170019193554
lfemur -9.321815629018925 -2.460423636595467 -15.083470868259754
ltibia 61.909782939634695
lfoot 3.401344693135756 -13.108202525578246
ltoes -11.278205844121675
rfemur -13.511541821686297 5.177860660868517 29.28595788112401
rtibia 32.38156018230247
rfoot -8.191025817482172 -5.0278923931427535
rtoes 5.747466138001072
lowerback 10.49235507009192 -1.0889928207838184 1.2402359482287635
upperback 0.24213526526171958 -0.8761408400100119 2.368231024155262
thorax -5.22339553045695 -0.4578796680316862 2.0361259825997218
lowerneck -16.257918480467545 -2.7116301970872168 -1.7915816390203925
upperneck 22.11806599207658 -3.7869462355593386 0.16474443947249207
head 9.728069587618004 -1.990687731486918 -0.15565636880515654
lclavicle -4.518906397676414e-16 -7.862199149701286e-16
lhumerus -30.76286488322969 3.8137755254605743 81.56733760925017
lradius 27.76348173785358
lwrist 5.591450112588812
lhand -27.415588111736373 23.53385611599388
lfingers 7.12502
lthumb -0.8879901861422428 53.5924685984735
rclavicle -4.528887638737512e-16 -7.761863934620674e-16
rhumerus -32.184163945834655 -24.05726629657191 -75.88417845071609
rradius 20.86540473453376
rwrist 9.645157351800021
rhand -17.5499849987611 22.13967918637813
rfingers 7.12502
rthumb 8.675279087787455 -7.685854290959822
